<?xml version="1.0" encoding="UTF-8"?>
<svg id="Layer_2" data-name="Layer 2" xmlns="http://www.w3.org/2000/svg" viewBox="0 0 2002.72 303.01">
  <defs>
    <style>
      .cls-1 {
        fill: #000;
        stroke-width: 0px;
      }
    </style>
  </defs>
  <g id="Layer_1-2" data-name="Layer 1">
    <g>
      <path class="cls-1" d="M96.87,94.54c62.9,17.2,42.32,17.25,105.82,1.21-8.75,4.34-17.4,8.88-26.27,12.95-6.55,3.01-13.47,5.11-20.38,7.24-7.22,2.22-13.64-.3-19.81-2.54-13.27-4.82-26.23-10.55-39.36-18.86Z"/>
      <path class="cls-1" d="M96.05,96.42c2.55,18.11,5.44,36.2,14.73,52.27,9.22,15.94,22.98,27.73,37.79,38.43-10.98-5.08-21.02-11.58-30.66-18.69-4.6-3.39-9.59-6.44-12.99-11.16-3.86-5.36-5.07-11.88-5.92-18.14-1.92-14.13-3.36-28.34-2.95-42.71Z"/>
      <path class="cls-1" d="M152.26,186.19c34.32-19.94,50.43-50.26,52.36-90.28,1.28,5.55,1.03,17.48.42,21.17-.86,5.16-.45,10.44-1.3,15.66-1.13,7.02-1.62,14.28-4.56,20.73-2.61,5.73-8.04,9.4-12.99,13.2-9.48,7.29-19.86,13.2-30.12,19.29-.91.54-1.68.99-3.81.23Z"/>
      <path class="cls-1" d="M256.05,70.18c-.87,10.04-.53,19.84-2.18,29.55-.92,5.41-1.63,10.93-2.47,16.39-1.44,9.42-7.32,15.85-14.85,21.36-9.72,7.11-19.87,13.44-30.91,18.89,31.73-20.1,46.9-49.71,50.4-86.19Z"/>
      <path class="cls-1" d="M153.09,246.28c31.14-20.2,48.39-48.64,49.89-86.13,1.24,10.46-.03,20.65-.91,30.88-.51,5.86-1.53,11.62-2.77,17.31-2.07,9.43-9.69,14.55-16.76,20-8.58,6.62-17.65,12.53-26.82,18.29-.41.26-1.15,1.32-2.62-.35Z"/>
      <path class="cls-1" d="M48.2,67.01c33.35,17.16,66.72,15.23,100.15.66-15.19,8.6-30.85,15.57-47.5,19.9-6.63,1.73-13.29-.61-19.53-2.96-11.16-4.21-21.7-9.82-32.36-15.14-.41-.2-.65-.72-.98-1.09.07-.46.15-.91.22-1.37Z"/>
      <path class="cls-1" d="M153.99,68.4c33.13,14.14,66.14,15.28,99.34-1.23-.22,2.27-1.37,2.35-2.31,2.83-13.04,6.59-25.83,13.7-40.21,17.28-5.04,1.25-9.96.58-14.5-.78-14.47-4.34-28.24-10.54-41.74-17.31-.26-.13-.4-.52-.59-.78Z"/>
      <path class="cls-1" d="M98.92,160.24c2.56,36.65,18.61,65.46,49.72,85.52-2.67,2.45-3.5-.65-5.05-1.16-1.79-.59-3.43-1.78-4.99-2.92-9.18-6.71-18.77-12.82-27.23-20.57-5.97-5.47-8.4-12.41-9.52-19.72-1.98-12.97-3.64-26.03-3.16-39.22.02-.64.15-1.29.22-1.93Z"/>
      <path class="cls-1" d="M96.32,156.45c-12.74-6.83-25.04-14.14-35.99-23.53-5.63-4.83-8.12-11.21-9.17-18.25-2.03-13.66-3.9-27.34-5.18-41.16,3.38,10.3,4.83,21.09,8.65,31.24,4.01,10.68,9.05,20.57,16.65,29.32,7.47,8.6,16.66,15,25.05,22.38Z"/>
      <path class="cls-1" d="M1.82,42.7c9.58,3.86,18.82,7.22,28.59,9.26,13.42,2.81,26.42,2.26,39.51-1.69,9.32-2.82,18.86-4.95,28.38-7.12-15.25,8.28-31.24,14.82-48.17,18.45-7.93,1.7-15.62-2.11-22.91-5.1-7.58-3.1-14.78-7.11-22.21-10.6-1.38-.65-2.35-1.42-3.18-3.19Z"/>
      <path class="cls-1" d="M302,46.01c.84,7.3-.81,14.19-1.53,21.13-.85,8.18-2.55,16.29-4.22,24.36-1.86,8.98-7.81,15.03-15.01,20.22-8.69,6.26-17.58,12.12-27.68,16.41,30.75-18.8,43.83-47.93,48.45-82.13Z"/>
      <path class="cls-1" d="M204.45,43.23c47.22,15.61,60.49,13.02,96.66-.53-2.97,2.55-5.31,4.17-8.06,5.33-2.67,1.13-5.17,2.67-7.84,3.82-8.24,3.55-16.3,7.42-25.21,9.43-6.03,1.36-11.47-.28-16.74-1.79-13.13-3.77-25.63-9.39-38.14-14.89-.21-.09-.27-.51-.68-1.36Z"/>
      <path class="cls-1" d="M101.37,218.88c2.42,35.76,19.84,62.73,48.77,83.01-.44.37-.87.75-1.31,1.12-7.65-5.54-15.33-11.02-22.92-16.63-3.53-2.61-6.83-5.54-10.31-8.23-7.15-5.53-10.14-13.34-11.58-21.79-2.09-12.27-2.47-24.71-2.66-37.47Z"/>
      <path class="cls-1" d="M102.93,43.4c31.93,13.75,63.67,14.24,95.18-.63,1.1,2.27-.61,2.01-1.25,2.32-13.15,6.43-26.35,12.63-40.75,16.01-7.88,1.85-14.72-1.06-21.67-3.38-10.53-3.51-20.63-8.17-30.51-13.25-.41-.21-.67-.71-1-1.08Z"/>
      <path class="cls-1" d="M47.78,127.21c-4.09-.86-7.21-3-10.35-5.12-5.87-3.98-11.97-7.63-17.66-11.85-8.06-5.98-12.47-14.2-14.1-24.15-1.94-11.86-4.29-23.65-4.84-35.68-.08-1.79-1.91-3.23.15-6.71,4.44,34.95,16.75,64.27,46.8,83.5Z"/>
      <path class="cls-1" d="M201.25,219.35c.84,15.07-.5,30.04-3.85,44.78-1.14,5.01-4.23,9.11-8.16,12.43-10.74,9.09-22,17.49-34.06,24.88,7.13-8.08,16.26-14.04,23.01-22.58,6.77-8.58,12.57-17.51,16.5-27.73,3.94-10.24,4.57-21.08,6.56-31.78Z"/>
      <path class="cls-1" d="M97.75,213.99c-9.62-4.28-17.48-10.96-26.03-16.59-12.52-8.24-16.52-20.41-18.13-34.36-1.14-9.88-2.45-19.72-2.44-29.9,4.04,33.61,17.9,61.42,46.61,80.84Z"/>
      <path class="cls-1" d="M204.69,214.19c11.57-9.2,22.71-18.82,30.85-31.21,8.07-12.28,11.55-26.34,14.41-40.91,1.13,5.8.72,17.77-.59,23.33-.78,3.29-1.48,6.62-1.97,9.97-1.48,10.29-8.51,16.59-16.21,22.2-7.81,5.69-15.99,10.88-24.02,16.28-.62.42-1.18,1.3-2.47.34Z"/>
      <path class="cls-1" d="M54.8,190.38c3.36,15.21,6.88,30.32,14.84,44.02,8.09,13.91,19.7,24.56,31.8,34.9-4-1.21-6.84-4.18-10.16-6.39-7.73-5.12-14.83-11.03-21.95-16.94-6.62-5.5-9.23-12.89-10.51-20.76-1.77-10.89-2.79-21.91-4.11-32.87-.08-.64.05-1.31.08-1.96Z"/>
      <path class="cls-1" d="M250.68,185.37c27.78-19.22,41.69-46.24,45.09-79.29,1.65,4.57-.02,8.81-.36,13.02-.84,10.47-2.4,20.91-4.99,31.14-2.12,8.39-7.96,13.85-14.57,18.83-7.93,5.99-16.06,11.65-25.17,16.3Z"/>
      <path class="cls-1" d="M51.96,186.06c-7.05-4.91-14.25-9.62-21.11-14.78-4.66-3.51-9.68-6.64-13.19-11.57-4.08-5.73-5.17-12.42-6.45-19.01-2.18-11.33-3.79-22.76-4.11-34.48,4.76,32.35,17.39,60.05,46.16,78.37-.43.49-.87.99-1.3,1.48Z"/>
      <path class="cls-1" d="M154.15,20.83c30.44,12.21,60.69,13.46,91.07-.08-1.59,2.95-4.5,3.66-6.9,4.62-2.69,1.08-5.23,2.47-7.94,3.5-7.78,2.94-15.35,6.31-23.58,8.23-6.03,1.41-11.38.03-16.69-1.43-12.52-3.45-24.48-8.53-35.96-14.83Z"/>
      <path class="cls-1" d="M148.64,21.8c-7.15,3.01-14.25,6.17-21.48,8.99-6.87,2.68-13.89,4.85-21.12,6.53-4.31,1-8.33.41-12.02-.67-12.84-3.75-25.31-8.57-36.88-15.94,30.43,13.52,60.82,12.29,91.23-.32.09.47.18.95.27,1.42Z"/>
      <path class="cls-1" d="M203.36,268.69c10.68-9.26,20.99-19.01,28.82-31.08,7.61-11.73,10.87-25.21,15.62-38.27-.89,7.46-1.76,14.93-2.67,22.39-.24,1.94-.67,3.85-.84,5.79-.82,9.64-6.97,16.06-13.81,21.7-7.88,6.49-16.3,12.34-24.52,18.42-.73.54-1.72.71-2.6,1.06Z"/>
      <path class="cls-1" d="M290.78,162.89c-.53,12.99-1.86,25.81-5.09,38.39-1.54,5.97-3.89,11.25-8.54,15.45-9.16,8.3-19.27,15.29-29.88,21.75,7.01-6.86,14.75-12.92,20.92-20.66,6.4-8.04,11.71-16.54,15.08-26.27,3.24-9.35,5.5-18.97,7.51-28.66Z"/>
      <path class="cls-1" d="M57.21,238.5c-4.43-1.15-7.74-4.28-11.29-6.84-8.73-6.27-17.78-12.23-24.08-21.29-2.78-4-3.25-8.66-4.32-13.18-2.39-10.13-3.26-20.49-4.78-30.76-.14-.97-.02-1.98.3-3.02,2.52,9.44,4.42,19.03,7.73,28.21,3.37,9.34,8.25,17.79,14.62,25.52,6.52,7.92,14.01,14.69,21.82,21.36Z"/>
      <path class="cls-1" d="M107.94,0c29.2,11.95,58.31,11.92,87.53.02-5.03,3.77-10.73,5.8-16.35,7.93-9.17,3.47-18.21,8.15-28.22,7.71-9.36-.42-18.1-4.17-26.74-7.73-5.52-2.27-11.28-4.07-16.21-7.93Z"/>
    </g>
    <g>
      <path class="cls-1" d="M398.11,181.24v-59.35h47.84c4.45,0,7.67.91,9.63,2.72,1.97,1.82,2.95,4.75,2.95,8.79v6.91c0,3.18-.8,5.56-2.39,7.13-1.59,1.57-4.09,2.56-7.5,2.98,3.33.41,5.87,1.6,7.61,3.57,1.74,1.96,2.61,4.65,2.61,8.06v7.58c0,3.93-1.36,6.85-4.07,8.76-2.71,1.91-6.84,2.86-12.38,2.86h-44.3ZM448.37,140.98v-5.95c0-1.95-.42-3.29-1.26-4.04-.84-.75-2.44-1.12-4.8-1.12h-34.25v16.4h34.25c2.28,0,3.86-.39,4.74-1.18.88-.79,1.32-2.15,1.32-4.1ZM448.87,166.08v-4.94c0-2.7-.48-4.56-1.43-5.59-.96-1.03-2.67-1.54-5.14-1.54h-34.25v19.09h34.25c2.51,0,4.23-.51,5.17-1.52.94-1.01,1.4-2.84,1.4-5.5Z"/>
      <path class="cls-1" d="M494.19,132.5c.15,1.16.26,2.38.34,3.65.07,1.27.11,2.96.11,5.05v40.04h-8.42v-59.35h8.09l28.86,38.63,26.9-38.63h9.1v59.35h-9.1v-40.04c0-.52.06-1.84.2-3.96.13-2.11.21-3.7.25-4.75-.75,1.54-1.41,2.83-1.99,3.87-.58,1.05-1.09,1.89-1.54,2.53l-22.69,33.02h-2.53l-23.58-32.12s-.13-.17-.28-.39c-1.72-2.36-2.96-4.66-3.71-6.91Z"/>
      <path class="cls-1" d="M590.04,181.24v-59.35h57.16v7.97h-47.22v16.51h28.86v7.86h-28.86v18.87h47.67v8.14h-57.61Z"/>
      <path class="cls-1" d="M714.25,181.24v-59.35h56.49v8.09h-46.55v19.43h26.56v7.92h-26.56v23.92h-9.94Z"/>
      <path class="cls-1" d="M780.23,144.06c0-4.45.84-7.5,2.53-9.12,1.68-1.63,4.83-2.44,9.43-2.44h35.21c4.6,0,7.75.81,9.43,2.44,1.68,1.63,2.53,4.67,2.53,9.12v25.66c0,4.46-.83,7.49-2.5,9.1-1.67,1.61-4.82,2.41-9.46,2.41h-35.21c-4.68,0-7.84-.79-9.49-2.39-1.65-1.59-2.47-4.63-2.47-9.12v-25.66ZM789.44,173.88h40.71v-34.14h-40.71v34.14Z"/>
      <path class="cls-1" d="M860.75,181.24v-48.74h39.19c3.63,0,6.24.74,7.83,2.22,1.59,1.48,2.39,3.88,2.39,7.22v10.89c0,3.29-.8,5.67-2.39,7.13-1.59,1.46-4.2,2.19-7.83,2.19h-6.46l21.51,19.09h-12.3l-19.43-19.09h-13.31v19.09h-9.21ZM895.9,139.63h-25.94v15.72h25.94c2.06,0,3.44-.34,4.16-1.01.71-.67,1.07-1.98,1.07-3.93v-5.84c0-1.8-.37-3.07-1.12-3.82-.75-.75-2.12-1.12-4.1-1.12Z"/>
      <path class="cls-1" d="M938.58,141.54c0,.71.04,1.68.11,2.92.07,2.02.11,3.31.11,3.87v32.91h-7.58v-48.74h7.58l24.26,31.61,22.29-31.61h8.54v48.74h-8.54v-32.91c0-1.2.05-2.36.14-3.48.09-1.12.23-2.21.42-3.26-.52,1.54-1.07,2.89-1.63,4.07-.56,1.18-1.09,2.07-1.57,2.67l-18.75,25.21h-2.41l-19.43-24.99c-.67-.86-1.31-1.87-1.91-3.03-.6-1.16-1.14-2.49-1.63-3.99Z"/>
      <path class="cls-1" d="M1025.78,132.5v41.38h35.6v-41.38h9.32v37.23c0,4.49-.83,7.53-2.5,9.12-1.67,1.59-4.82,2.39-9.46,2.39h-30.21c-4.64,0-7.8-.8-9.46-2.41-1.67-1.61-2.5-4.64-2.5-9.1v-37.23h9.21Z"/>
      <path class="cls-1" d="M1093.28,181.24v-48.74h9.21v41.38h37.9v7.36h-47.11Z"/>
      <path class="cls-1" d="M1151.06,181.24l28.19-48.74h8.42l28.86,48.74h-10l-6.34-11.4h-33.69l-6.23,11.4h-9.21ZM1170.38,162.82h25.89l-12.97-23.19-12.92,23.19Z"/>
      <path class="cls-1" d="M1278.24,181.24v-59.35h47.84c4.45,0,7.67.91,9.63,2.72,1.97,1.82,2.95,4.75,2.95,8.79v13.25c0,4.01-.98,6.92-2.95,8.73-1.96,1.82-5.18,2.72-9.63,2.72h-8.7l27.12,23.13h-14.71l-24.15-23.13h-17.46v23.13h-9.94ZM1322.21,129.58h-34.03v20.83h34.03c2.47,0,4.15-.45,5.05-1.35s1.35-2.47,1.35-4.72v-8.65c0-2.25-.46-3.83-1.38-4.74-.92-.92-2.59-1.38-5.03-1.38Z"/>
      <path class="cls-1" d="M1355.96,181.24l28.19-48.74h8.42l28.86,48.74h-10l-6.34-11.4h-33.69l-6.23,11.4h-9.21ZM1375.28,162.82h25.89l-12.97-23.19-12.92,23.19Z"/>
      <path class="cls-1" d="M1478.09,139.74h-34.03v34.14h34.03v-11.62l9.21,1.74v5.73c0,4.46-.83,7.49-2.5,9.1-1.67,1.61-4.82,2.41-9.46,2.41h-28.64c-4.64,0-7.78-.78-9.41-2.33-1.63-1.55-2.44-4.61-2.44-9.18v-25.66c0-4.53.82-7.59,2.47-9.18,1.65-1.59,4.77-2.39,9.38-2.39h28.64c4.64,0,7.79.81,9.46,2.44,1.67,1.63,2.5,4.67,2.5,9.12v4.6l-9.21,1.52v-10.44Z"/>
      <path class="cls-1" d="M1515.82,181.24h-9.15v-48.63h9.15v48.63Z"/>
      <path class="cls-1" d="M1545.98,142.27c.22,1.42.39,2.86.51,4.32.11,1.46.17,2.92.17,4.38v30.27h-8.48v-48.74h7.02l35.77,31.84c1.05.9,2.05,1.89,3,2.98.95,1.09,1.9,2.32,2.83,3.71-.26-1.46-.46-2.94-.59-4.44-.13-1.5-.2-3.05-.2-4.66v-29.42h8.48v48.74h-6.29l-36.5-32.29c-1.27-1.2-2.37-2.33-3.29-3.4-.92-1.07-1.73-2.16-2.44-3.29Z"/>
      <path class="cls-1" d="M1663.62,139.74h-38.52v34.14h38.52v-13.25h-19.88v-6.63h29.09v15.72c0,4.46-.83,7.49-2.5,9.1-1.67,1.61-4.82,2.41-9.46,2.41h-33.02c-4.64,0-7.8-.79-9.46-2.39-1.67-1.59-2.5-4.63-2.5-9.12v-25.66c0-4.45.84-7.5,2.53-9.12,1.68-1.63,4.83-2.44,9.43-2.44h33.02c4.53,0,7.65.81,9.38,2.41,1.72,1.61,2.58,4.44,2.58,8.48v1.4l-9.21,1.57v-6.63Z"/>
      <path class="cls-1" d="M1763.34,129.97v51.27h-9.88v-51.27h-27.12v-8.09h64.24v8.09h-27.23Z"/>
      <path class="cls-1" d="M1801.14,181.24v-48.74h49.08v7.24h-39.87v12.52h24.03v7.24h-24.03v14.6h40.32v7.13h-49.53Z"/>
      <path class="cls-1" d="M1859.98,181.24l28.19-48.74h8.42l28.86,48.74h-10l-6.34-11.4h-33.69l-6.23,11.4h-9.21ZM1879.3,162.82h25.89l-12.97-23.19-12.92,23.19Z"/>
      <path class="cls-1" d="M1947.41,141.54c0,.71.04,1.68.11,2.92.07,2.02.11,3.31.11,3.87v32.91h-7.58v-48.74h7.58l24.26,31.61,22.29-31.61h8.54v48.74h-8.54v-32.91c0-1.2.05-2.36.14-3.48.09-1.12.23-2.21.42-3.26-.52,1.54-1.07,2.89-1.63,4.07-.56,1.18-1.09,2.07-1.57,2.67l-18.75,25.21h-2.41l-19.43-24.99c-.67-.86-1.31-1.87-1.91-3.03-.6-1.16-1.14-2.49-1.63-3.99Z"/>
    </g>
  </g>
</svg>